<mxfile host="app.diagrams.net" modified="2022-04-20T13:24:34.633Z" agent="5.0 (Windows NT 10.0; Win64; x64) AppleWebKit/537.36 (KHTML, like Gecko) Chrome/100.0.4896.88 Safari/537.36" etag="qfr7928WGDbc8miEQK2b" version="17.4.5" type="github">
  <diagram id="Ao6Q-67OHpFfz_EzXNG_" name="第 1 页">
    <mxGraphModel dx="3519" dy="1708" grid="0" gridSize="10" guides="1" tooltips="1" connect="1" arrows="1" fold="1" page="1" pageScale="1" pageWidth="827" pageHeight="1169" math="0" shadow="0">
      <root>
        <mxCell id="0" />
        <mxCell id="1" parent="0" />
        <mxCell id="5DBd3WqgXzm7yz9lVZFs-1" value="{3、2、3、4、5}" style="text;html=1;strokeColor=none;fillColor=none;align=center;verticalAlign=middle;whiteSpace=wrap;rounded=0;fontStyle=1;fontSize=17;" vertex="1" parent="1">
          <mxGeometry x="-2196" y="-496" width="203" height="25" as="geometry" />
        </mxCell>
        <mxCell id="5DBd3WqgXzm7yz9lVZFs-2" value="" style="group" vertex="1" connectable="0" parent="1">
          <mxGeometry x="-2213" y="-443" width="225" height="190" as="geometry" />
        </mxCell>
        <mxCell id="5DBd3WqgXzm7yz9lVZFs-3" value="" style="rounded=0;whiteSpace=wrap;html=1;" vertex="1" parent="5DBd3WqgXzm7yz9lVZFs-2">
          <mxGeometry y="76" width="45" height="38" as="geometry" />
        </mxCell>
        <mxCell id="5DBd3WqgXzm7yz9lVZFs-4" value="" style="rounded=0;whiteSpace=wrap;html=1;fillColor=#ffe6cc;strokeColor=#d79b00;" vertex="1" parent="5DBd3WqgXzm7yz9lVZFs-2">
          <mxGeometry y="114" width="45" height="38" as="geometry" />
        </mxCell>
        <mxCell id="5DBd3WqgXzm7yz9lVZFs-5" value="" style="rounded=0;whiteSpace=wrap;html=1;fillColor=#ffe6cc;strokeColor=#d79b00;" vertex="1" parent="5DBd3WqgXzm7yz9lVZFs-2">
          <mxGeometry y="152" width="45" height="38" as="geometry" />
        </mxCell>
        <mxCell id="5DBd3WqgXzm7yz9lVZFs-6" value="" style="rounded=0;whiteSpace=wrap;html=1;fillColor=#ffe6cc;strokeColor=#d79b00;" vertex="1" parent="5DBd3WqgXzm7yz9lVZFs-2">
          <mxGeometry x="45" y="152" width="45" height="38" as="geometry" />
        </mxCell>
        <mxCell id="5DBd3WqgXzm7yz9lVZFs-7" value="" style="rounded=0;whiteSpace=wrap;html=1;fillColor=#ffe6cc;strokeColor=#d79b00;" vertex="1" parent="5DBd3WqgXzm7yz9lVZFs-2">
          <mxGeometry x="45" y="114" width="45" height="38" as="geometry" />
        </mxCell>
        <mxCell id="5DBd3WqgXzm7yz9lVZFs-8" value="" style="rounded=0;whiteSpace=wrap;html=1;fillColor=#ffe6cc;strokeColor=#d79b00;" vertex="1" parent="5DBd3WqgXzm7yz9lVZFs-2">
          <mxGeometry x="90" y="152" width="45" height="38" as="geometry" />
        </mxCell>
        <mxCell id="5DBd3WqgXzm7yz9lVZFs-9" style="edgeStyle=none;rounded=0;orthogonalLoop=1;jettySize=auto;html=1;exitX=1;exitY=0.75;exitDx=0;exitDy=0;fontSize=17;endArrow=none;endFill=0;" edge="1" parent="5DBd3WqgXzm7yz9lVZFs-2" source="5DBd3WqgXzm7yz9lVZFs-10" target="5DBd3WqgXzm7yz9lVZFs-11">
          <mxGeometry relative="1" as="geometry" />
        </mxCell>
        <mxCell id="5DBd3WqgXzm7yz9lVZFs-10" value="" style="rounded=0;whiteSpace=wrap;html=1;fillColor=#ffe6cc;strokeColor=#d79b00;" vertex="1" parent="5DBd3WqgXzm7yz9lVZFs-2">
          <mxGeometry x="90" y="114" width="45" height="38" as="geometry" />
        </mxCell>
        <mxCell id="5DBd3WqgXzm7yz9lVZFs-11" value="" style="rounded=0;whiteSpace=wrap;html=1;" vertex="1" parent="5DBd3WqgXzm7yz9lVZFs-2">
          <mxGeometry x="90" y="76" width="45" height="38" as="geometry" />
        </mxCell>
        <mxCell id="5DBd3WqgXzm7yz9lVZFs-12" value="" style="rounded=0;whiteSpace=wrap;html=1;fillColor=#ffe6cc;strokeColor=#d79b00;" vertex="1" parent="5DBd3WqgXzm7yz9lVZFs-2">
          <mxGeometry x="135" y="152" width="45" height="38" as="geometry" />
        </mxCell>
        <mxCell id="5DBd3WqgXzm7yz9lVZFs-13" value="" style="rounded=0;whiteSpace=wrap;html=1;fillColor=#ffe6cc;strokeColor=#d79b00;" vertex="1" parent="5DBd3WqgXzm7yz9lVZFs-2">
          <mxGeometry x="135" y="114" width="45" height="38" as="geometry" />
        </mxCell>
        <mxCell id="5DBd3WqgXzm7yz9lVZFs-14" style="edgeStyle=none;rounded=0;orthogonalLoop=1;jettySize=auto;html=1;exitX=0.25;exitY=1;exitDx=0;exitDy=0;fontSize=17;endArrow=none;endFill=0;" edge="1" parent="5DBd3WqgXzm7yz9lVZFs-2" source="5DBd3WqgXzm7yz9lVZFs-15" target="5DBd3WqgXzm7yz9lVZFs-11">
          <mxGeometry relative="1" as="geometry" />
        </mxCell>
        <mxCell id="5DBd3WqgXzm7yz9lVZFs-15" value="" style="rounded=0;whiteSpace=wrap;html=1;" vertex="1" parent="5DBd3WqgXzm7yz9lVZFs-2">
          <mxGeometry x="135" y="76" width="45" height="38" as="geometry" />
        </mxCell>
        <mxCell id="5DBd3WqgXzm7yz9lVZFs-16" value="" style="rounded=0;whiteSpace=wrap;html=1;" vertex="1" parent="5DBd3WqgXzm7yz9lVZFs-2">
          <mxGeometry x="135" y="38" width="45" height="38" as="geometry" />
        </mxCell>
        <mxCell id="5DBd3WqgXzm7yz9lVZFs-17" value="" style="rounded=0;whiteSpace=wrap;html=1;fillColor=#ffe6cc;strokeColor=#d79b00;" vertex="1" parent="5DBd3WqgXzm7yz9lVZFs-2">
          <mxGeometry x="180" y="152" width="45" height="38" as="geometry" />
        </mxCell>
        <mxCell id="5DBd3WqgXzm7yz9lVZFs-18" value="" style="rounded=0;whiteSpace=wrap;html=1;fillColor=#ffe6cc;strokeColor=#d79b00;" vertex="1" parent="5DBd3WqgXzm7yz9lVZFs-2">
          <mxGeometry x="180" y="114" width="45" height="38" as="geometry" />
        </mxCell>
        <mxCell id="5DBd3WqgXzm7yz9lVZFs-19" value="" style="rounded=0;whiteSpace=wrap;html=1;" vertex="1" parent="5DBd3WqgXzm7yz9lVZFs-2">
          <mxGeometry x="180" y="76" width="45" height="38" as="geometry" />
        </mxCell>
        <mxCell id="5DBd3WqgXzm7yz9lVZFs-20" value="" style="rounded=0;whiteSpace=wrap;html=1;" vertex="1" parent="5DBd3WqgXzm7yz9lVZFs-2">
          <mxGeometry x="180" y="38" width="45" height="38" as="geometry" />
        </mxCell>
        <mxCell id="5DBd3WqgXzm7yz9lVZFs-21" value="" style="rounded=0;whiteSpace=wrap;html=1;" vertex="1" parent="5DBd3WqgXzm7yz9lVZFs-2">
          <mxGeometry x="180" width="45" height="38" as="geometry" />
        </mxCell>
      </root>
    </mxGraphModel>
  </diagram>
</mxfile>
